<svg xmlns="http://www.w3.org/2000/svg" width="1200" height="320" viewBox="0 0 1200 320">
  <defs>
    <linearGradient id="g" x1="0" x2="1" y1="0" y2="1">
      <stop offset="0" stop-color="#5B6BFF"/>
      <stop offset="1" stop-color="#2F8CFF"/>
    </linearGradient>
  </defs>
  <rect width="1200" height="320" rx="72" fill="#080A12"/>
  <g transform="translate(72 60)">
    <rect width="200" height="200" rx="56" fill="url(#g)"/>
    <path d="M64 98h72c18 0 32 14 32 32v32H96v-30c0-7 5-12 12-12h28c-4-12-15-20-28-20H64V98z" fill="#fff"/>
    <path d="M64 78c0-23 19-42 42-42s42 19 42 42v24h-28V78c0-8-6-14-14-14s-14 6-14 14v24H64V78z" fill="#D9E8FF"/>
  </g>
  <text x="320" y="150" fill="#FFFFFF" font-family="Avenir Next, Helvetica, Arial, sans-serif" font-size="88" font-weight="800">Doorcodes</text>
  <text x="324" y="220" fill="#B8C2E8" font-family="Avenir Next, Helvetica, Arial, sans-serif" font-size="34" font-weight="600">Save it once. Find it when you arrive.</text>
</svg>
